<?xml version="1.0" standalone="no"?>
<!DOCTYPE svg PUBLIC "-//W3C//DTD SVG 20010904//EN"
 "http://www.w3.org/TR/2001/REC-SVG-20010904/DTD/svg10.dtd">
<svg version="1.0" xmlns="http://www.w3.org/2000/svg"
 width="1500.000000pt" height="1500.000000pt" viewBox="0 0 1500.000000 1500.000000"
 preserveAspectRatio="xMidYMid meet">
<metadata>
Created by potrace 1.14, written by Peter Selinger 2001-2017
</metadata>
<g transform="translate(0.000000,1500.000000) scale(0.100000,-0.100000)"
fill="#000000" stroke="none">
<path d="M7630 14697 c-3 -3 -77 -9 -165 -12 -223 -8 -424 -19 -585 -31 -47
-4 -94 -7 -105 -8 -13 -1 -20 -8 -19 -21 2 -17 61 -197 81 -245 3 -8 7 -19 9
-25 1 -5 16 -57 33 -115 50 -170 74 -259 92 -345 7 -33 14 -67 16 -75 2 -8 6
-26 8 -40 3 -14 7 -34 9 -45 2 -11 7 -44 11 -72 l8 -53 -29 -1 c-16 -1 -38 -3
-49 -4 -116 -17 -195 -27 -223 -29 -22 -1 -27 10 -67 139 -65 212 -114 342
-194 510 -28 59 -30 61 -92 82 -35 12 -95 34 -134 48 -38 15 -92 34 -120 43
-27 9 -52 19 -55 22 -3 3 -32 14 -65 24 -33 11 -64 22 -70 25 -5 3 -12 6 -15
7 -3 0 -18 6 -33 12 -15 7 -40 15 -55 18 -15 4 -33 11 -39 17 -9 6 -18 6 -27
-2 -8 -7 -17 -8 -20 -3 -3 5 -45 -2 -93 -15 -48 -13 -101 -26 -117 -29 -16 -2
-32 -7 -36 -9 -3 -2 -17 -6 -31 -9 -39 -7 -613 -147 -629 -153 -8 -4 -19 -7
-25 -7 -5 -1 -54 -12 -107 -26 -108 -26 -107 -24 -43 -95 20 -22 50 -60 68
-83 18 -24 46 -59 64 -78 18 -19 33 -38 33 -42 0 -4 8 -16 18 -27 35 -43 202
-294 267 -405 97 -164 235 -443 285 -577 7 -18 17 -33 22 -33 5 0 6 -5 3 -10
-4 -6 -3 -16 2 -23 5 -7 20 -45 33 -84 14 -40 28 -73 33 -73 4 0 6 -4 3 -8 -3
-5 10 -56 29 -113 33 -102 63 -209 71 -259 3 -14 9 -38 14 -55 6 -16 15 -57
22 -90 6 -33 12 -62 13 -65 1 -3 5 -25 9 -50 4 -25 9 -56 12 -70 l4 -25 -1040
2 c-965 1 -1040 0 -1041 -15 0 -9 -1 -1792 -1 -3962 -1 -3444 2 -4044 17
-4120 41 -200 113 -354 225 -484 49 -57 135 -136 147 -136 7 0 13 -4 13 -9 0
-19 188 -117 298 -155 163 -57 120 -55 1232 -54 779 1 1044 -2 1105 -11 373
-59 619 -224 749 -504 63 -136 109 -348 115 -536 0 -19 3 -32 6 -29 5 5 7 20
20 188 4 47 9 92 11 100 2 8 10 47 19 85 8 39 19 81 25 95 5 14 15 39 21 55 7
17 13 32 14 35 0 3 13 29 28 57 15 29 27 56 26 59 0 4 3 10 8 13 4 3 21 24 37
46 54 74 187 195 214 195 6 0 12 3 14 8 8 20 215 100 298 115 14 3 36 8 50 11
89 22 298 27 1295 31 888 4 1014 7 1067 19 78 18 234 87 383 170 42 23 123 92
142 121 78 118 113 174 113 179 0 3 11 28 24 56 31 65 61 167 76 260 7 41 15
84 17 95 3 11 6 1817 7 4013 1 3985 1 3992 -19 3999 -11 4 -396 7 -855 8 -820
1 -835 2 -833 21 3 29 12 96 18 124 14 75 50 235 67 300 11 41 21 82 22 90 4
30 109 345 117 355 5 5 9 14 9 21 0 6 8 29 17 50 9 22 17 44 19 49 2 13 83
193 121 270 52 106 197 361 213 375 3 3 21 30 40 60 19 30 38 60 42 65 5 6 22
28 39 50 16 22 36 48 44 58 8 9 11 17 7 17 -4 0 -2 4 4 8 6 4 47 52 92 107 45
55 104 125 131 155 48 52 59 70 44 70 -3 0 -140 34 -302 76 -163 42 -303 77
-311 79 -8 2 -17 4 -20 5 -3 1 -9 2 -13 1 -4 -1 -16 3 -26 8 -10 6 -29 12 -42
15 -13 2 -60 13 -104 24 -44 12 -91 23 -105 26 -14 3 -65 16 -115 29 -95 26
-111 26 -120 -2 -3 -10 -24 -23 -48 -30 -23 -7 -55 -19 -72 -25 -38 -16 -109
-43 -255 -96 -63 -23 -135 -50 -160 -60 -25 -9 -58 -20 -73 -24 -24 -6 -35
-20 -68 -94 -22 -48 -46 -101 -54 -117 -19 -43 -100 -264 -109 -297 -9 -37 -7
-32 -36 -118 -21 -62 -29 -75 -45 -73 -11 1 -60 5 -110 9 -49 4 -101 8 -115 9
-14 2 -35 3 -48 4 -23 1 -24 2 -17 94 3 50 8 103 10 117 2 14 6 50 10 80 6 53
10 79 19 138 3 15 8 47 11 71 4 24 20 110 36 190 39 193 38 185 55 255 8 34
17 72 20 85 3 14 7 28 10 33 3 4 -1 8 -8 9 -7 1 -26 2 -43 4 -127 14 -845 32
-855 22z"/>
<path d="M11525 13094 c-45 -10 -120 -37 -131 -47 -63 -52 -96 -127 -99 -227
-3 -85 35 -185 81 -215 55 -36 106 -113 119 -180 2 -11 4 -20 5 -20 1 0 3 -7
5 -15 1 -8 11 -33 21 -55 22 -45 38 -51 165 -59 78 -6 129 -19 140 -38 9 -14
-7 -79 -22 -89 -7 -4 -39 -12 -71 -18 -77 -13 -112 -40 -132 -98 -20 -58 -20
-87 -1 -138 19 -48 64 -82 120 -90 80 -12 115 -25 115 -43 0 -25 -28 -63 -91
-125 -63 -61 -76 -95 -60 -152 9 -32 7 -41 -11 -66 -13 -18 -21 -44 -22 -73
-1 -37 6 -54 40 -103 60 -85 77 -122 65 -137 -6 -7 -8 -16 -4 -19 3 -4 2 -7
-4 -7 -15 0 -32 -47 -38 -100 -3 -33 4 -71 30 -145 65 -194 64 -204 -14 -230
-73 -24 -99 -48 -106 -100 -9 -59 8 -105 55 -149 36 -33 46 -53 41 -80 -9 -46
-1 -127 14 -154 42 -71 113 -86 315 -68 96 8 180 -3 180 -24 0 -12 -23 -35
-68 -71 l-34 -26 34 -13 c105 -40 166 -88 202 -159 24 -47 89 -115 100 -104 3
4 6 1 6 -5 0 -6 10 -14 23 -18 42 -13 46 -21 31 -71 -8 -25 -14 -61 -14 -80 0
-18 -2 -33 -5 -33 -10 0 -41 37 -38 46 5 15 -36 74 -52 74 -8 0 -15 6 -15 13
0 23 -38 49 -73 51 -23 1 -48 14 -77 38 -72 63 -116 77 -239 82 l-109 3 10
-27 c7 -20 5 -43 -7 -83 -24 -83 -5 -148 69 -231 28 -32 33 -44 29 -71 -6 -36
23 -99 40 -88 6 3 7 1 3 -6 -8 -13 49 -75 63 -67 4 3 16 -3 26 -14 10 -11 31
-20 46 -20 30 0 135 36 157 53 10 8 19 5 34 -10 19 -20 17 -50 -2 -38 -5 3
-29 0 -54 -6 -33 -8 -60 -26 -97 -62 -89 -88 -104 -152 -52 -231 89 -137 97
-165 62 -210 -28 -36 -47 -102 -43 -151 3 -42 10 -66 45 -175 11 -36 23 -90
26 -121 l6 -56 -49 -18 c-102 -38 -114 -45 -134 -77 -22 -36 -26 -100 -10
-143 5 -14 30 -46 54 -69 35 -35 43 -49 40 -72 -1 -16 -5 -48 -8 -72 -8 -72 4
-112 43 -151 21 -21 56 -42 81 -50 45 -13 171 -18 189 -7 23 15 20 -17 -8 -71
-26 -52 -128 -287 -136 -313 -19 -65 -47 -150 -55 -165 -12 -26 -66 -228 -75
-280 -4 -22 -10 -44 -13 -50 -4 -5 -8 -19 -9 -30 -6 -49 -12 -90 -13 -90 -1 0
-3 -13 -5 -30 -2 -16 -7 -46 -11 -65 -24 -130 -25 -577 0 -711 3 -13 5 -24 6
-24 1 0 3 -17 5 -38 2 -21 6 -50 10 -65 11 -43 16 -65 20 -94 2 -15 10 -46 16
-70 7 -24 14 -50 15 -58 2 -13 30 -105 65 -212 15 -45 7 -58 -20 -34 -11 10
-30 16 -43 14 -19 -2 -29 7 -56 52 -63 103 -116 140 -200 140 -34 0 -57 6 -75
20 -14 11 -27 20 -29 20 -2 0 -5 -14 -6 -32 -2 -18 -13 -62 -26 -98 -31 -86
-26 -171 15 -251 10 -20 14 -40 9 -45 -4 -5 -10 -18 -12 -29 -3 -17 -10 -19
-52 -16 -26 1 -62 -3 -79 -10 -33 -13 -104 -69 -99 -77 2 -3 -4 -9 -13 -15 -9
-5 -25 -28 -35 -52 -21 -50 -14 -102 19 -144 12 -14 35 -53 52 -85 l31 -59
-22 -29 c-52 -71 -58 -150 -20 -273 35 -114 39 -128 42 -170 l3 -39 -66 -26
c-75 -29 -102 -47 -113 -75 -26 -70 -7 -145 51 -195 l35 -31 -5 -88 c-5 -103
6 -137 54 -173 48 -36 65 -41 144 -44 39 -2 75 -4 80 -4 6 0 -4 -9 -21 -18
-47 -26 -67 -44 -93 -83 -27 -39 -68 -69 -123 -89 -21 -8 -49 -23 -63 -35 -24
-18 -26 -27 -25 -80 3 -158 6 -148 -40 -151 -23 -2 -30 3 -39 27 -6 16 -16 43
-23 60 -31 84 -179 94 -228 14 -12 -20 -20 -50 -20 -77 0 -58 -18 -75 -57 -54
-15 8 -38 24 -51 36 -32 30 -88 51 -116 44 -13 -3 -36 -18 -51 -34 -20 -21
-34 -27 -54 -24 -120 21 -152 27 -193 39 -27 8 -48 12 -48 10 0 -3 -11 0 -24
5 -13 5 -44 12 -67 15 -24 3 -60 10 -79 15 -19 5 -62 12 -95 15 -33 4 -71 9
-85 11 -125 18 -335 24 -435 11 -79 -9 -179 -44 -232 -80 -57 -40 -90 -87
-127 -181 -37 -93 -33 -134 31 -316 3 -8 7 -22 8 -30 2 -13 28 -100 89 -300
17 -55 10 -65 -52 -80 -26 -5 -54 -12 -62 -15 -87 -27 -454 -102 -630 -129
-19 -3 -46 -8 -60 -10 -14 -3 -47 -7 -75 -11 -27 -3 -68 -8 -90 -11 -22 -2
-56 -6 -75 -8 -19 -2 -55 -7 -80 -10 -25 -3 -81 -8 -125 -11 -44 -4 -100 -9
-125 -11 -25 -3 -74 -7 -110 -9 -36 -2 -128 -7 -205 -11 -182 -11 -534 -11
-705 -1 -74 4 -164 10 -200 12 -36 2 -87 6 -115 9 -27 3 -81 8 -120 11 -80 7
-157 14 -200 20 -16 2 -73 9 -125 15 -101 12 -112 14 -205 29 -146 25 -212 35
-235 37 -25 3 -270 54 -345 72 -42 11 -215 57 -252 68 -23 6 -32 24 -13 24 6
0 9 3 8 8 -2 8 -4 3 68 227 30 94 59 177 64 185 26 40 42 89 42 130 1 46 -20
120 -34 120 -4 0 -7 3 -6 8 7 32 -92 172 -121 172 -6 0 -11 3 -11 8 0 6 -56
36 -70 37 -3 0 -10 4 -16 8 -16 10 -140 34 -194 37 -168 10 -320 -1 -550 -41
-135 -23 -125 -21 -260 -53 -172 -40 -176 -40 -218 -6 -21 17 -45 28 -57 25
-11 -2 -27 -4 -35 -4 -8 -1 -33 -17 -55 -36 -22 -19 -48 -35 -57 -36 -10 -1
-26 -2 -35 -3 -14 -1 -19 10 -24 49 -10 77 -17 92 -57 115 -72 43 -180 11
-196 -58 -16 -65 -26 -80 -56 -78 -16 1 -32 5 -36 9 -4 4 -7 52 -8 108 -1 91
-3 103 -21 113 -11 6 -22 13 -25 16 -3 3 -36 20 -74 39 -44 22 -75 45 -87 65
-29 50 -55 75 -83 82 -25 6 -46 24 -29 24 163 6 206 19 250 77 27 35 30 62 22
181 -2 37 2 47 34 80 47 48 66 96 61 152 -6 59 -40 94 -116 116 -77 24 -84 39
-58 136 11 40 22 80 25 88 40 124 38 202 -6 267 -28 42 -29 49 -18 77 7 17 29
56 49 86 43 65 54 94 51 134 -4 59 -68 137 -146 178 -22 11 -41 20 -42 19 -2
0 -25 -1 -52 -1 -47 0 -49 1 -55 33 -4 21 1 50 15 86 30 81 30 143 0 231 -15
41 -27 81 -27 88 -2 33 -5 36 -19 18 -10 -14 -33 -20 -88 -26 -99 -10 -157
-51 -207 -150 -13 -26 -28 -39 -47 -43 -15 -3 -38 -8 -50 -12 -22 -7 -24 -1
-11 35 9 23 59 187 63 207 3 10 9 38 16 63 16 66 19 82 24 112 2 15 6 31 8 35
5 9 24 128 34 223 9 81 9 454 0 535 -4 39 -9 86 -12 107 -2 20 -9 65 -16 100
-6 34 -13 72 -15 83 -1 11 -5 30 -8 43 -4 12 -8 30 -10 40 -2 9 -9 37 -16 62
-7 25 -14 53 -16 62 -9 41 -14 57 -38 128 -49 151 -110 307 -166 431 -62 137
-62 142 5 129 50 -9 155 9 191 34 74 50 82 74 73 223 -3 61 -2 64 32 95 54 50
72 91 67 155 -5 62 -32 97 -87 113 -69 21 -111 43 -112 59 -3 42 6 84 36 181
18 59 35 124 37 146 5 45 -14 129 -35 153 -36 40 -37 56 -10 107 14 27 41 72
60 100 47 69 47 118 3 182 -40 57 -76 93 -84 85 -3 -4 -6 -2 -6 4 0 13 -86 46
-104 40 -29 -11 -36 9 -12 32 19 18 28 20 42 12 60 -34 131 -57 152 -50 12 5
22 6 22 3 0 -3 12 3 28 14 15 10 34 21 44 25 9 3 33 31 53 61 31 47 36 62 31
90 -6 30 -1 40 35 83 74 84 90 149 59 235 -9 24 -9 43 -2 70 9 34 9 37 -6 29
-9 -5 -58 -9 -108 -9 -79 0 -99 -4 -145 -26 -29 -15 -70 -42 -90 -61 -28 -25
-44 -33 -63 -29 -21 3 -37 -6 -81 -49 -30 -29 -56 -61 -58 -72 -4 -27 -26 -65
-36 -65 -5 0 -11 21 -14 48 -8 62 -12 80 -20 88 -13 14 -7 22 40 50 68 39 109
80 127 125 25 61 113 134 186 154 52 13 52 15 8 52 -72 59 -73 68 -15 84 27 7
72 9 127 4 209 -18 251 -12 306 48 30 32 31 38 33 127 l2 94 44 40 c55 52 68
112 39 173 -16 32 -29 42 -82 63 -88 35 -89 37 -56 149 9 31 16 58 16 61 0 3
3 10 8 15 17 21 39 131 33 170 -3 22 -16 59 -30 83 l-25 42 21 41 c12 23 37
62 56 87 19 25 36 54 37 66 3 46 -5 82 -24 109 -17 24 -19 33 -9 53 26 57 6
99 -88 193 -93 91 -83 118 49 136 56 8 106 40 122 80 18 43 14 128 -9 172 -22
44 -67 69 -137 78 -27 3 -52 8 -57 11 -12 7 -29 73 -23 89 8 20 65 36 142 41
135 7 141 10 168 70 13 29 26 65 28 79 11 59 84 175 111 175 24 0 67 76 83
145 23 106 -17 249 -83 294 -74 51 -178 66 -225 34 -27 -18 -30 -21 -63 -74
-12 -20 -31 -50 -41 -67 -24 -38 -54 -52 -84 -41 -36 14 -132 -4 -132 -24 0
-6 -3 -7 -6 -4 -8 8 -34 -12 -123 -95 -38 -34 -82 -71 -99 -81 l-30 -17 -58
55 c-32 30 -64 55 -71 56 -89 7 -154 -36 -176 -119 -12 -44 -30 -58 -96 -77
-94 -28 -138 -104 -117 -204 6 -25 13 -41 89 -184 33 -62 47 -99 47 -127 0
-22 -4 -40 -8 -40 -5 0 -32 11 -60 25 -29 14 -54 25 -56 25 -2 0 -6 -37 -9
-82 -8 -115 -17 -142 -67 -197 -38 -43 -63 -126 -69 -236 -1 -6 -18 -9 -39 -7
-21 2 -55 -3 -76 -12 -33 -14 -39 -14 -53 -1 -8 8 -19 15 -24 15 -5 0 -9 37
-9 83 0 106 -24 159 -92 202 -29 18 -52 42 -59 61 l-12 31 -41 -41 c-23 -23
-58 -54 -78 -70 -43 -35 -75 -95 -91 -174 -7 -33 -22 -68 -35 -82 -23 -24 -30
-46 -30 -85 0 -11 -1 -38 -3 -59 -1 -24 2 -41 9 -44 7 -2 12 -17 12 -33 0 -43
35 -73 102 -88 32 -7 60 -15 62 -19 2 -4 7 -35 10 -70 6 -66 36 -168 62 -215
22 -39 12 -44 -29 -13 -39 30 -63 32 -114 11 -56 -24 -93 -70 -93 -117 0 -13
11 -45 25 -73 38 -77 37 -79 -40 -76 -22 1 -58 3 -80 4 -22 1 -49 -2 -61 -6
-18 -6 -22 -2 -32 31 -24 78 -104 119 -183 93 -19 -6 -38 -10 -42 -8 -13 3
-24 -23 -32 -73 -10 -64 -18 -73 -68 -88 -59 -18 -109 -69 -147 -149 -17 -35
-30 -68 -30 -74 0 -6 -15 -37 -33 -70 -36 -66 -52 -72 -115 -40 -32 16 -66 19
-119 10 -22 -4 -64 -55 -77 -94 -7 -20 -11 -60 -9 -89 4 -49 2 -53 -36 -89
-69 -65 -80 -86 -77 -148 1 -29 9 -65 17 -79 20 -34 75 -86 139 -131 70 -49
78 -56 118 -102 18 -21 30 -43 26 -48 -3 -5 -32 -8 -67 -5 -50 4 -67 1 -94
-15 -40 -25 -52 -45 -57 -99 -5 -58 11 -111 43 -146 49 -52 54 -69 33 -111
-23 -46 -50 -128 -53 -163 -5 -49 12 -106 36 -124 23 -17 23 -19 9 -58 -8 -22
-14 -55 -14 -72 0 -42 39 -121 83 -169 31 -33 34 -42 30 -77 -4 -30 -1 -45 16
-66 11 -15 21 -31 21 -35 0 -13 -27 -11 -42 4 -7 6 -25 18 -40 26 -28 14 -78
78 -78 98 0 20 -82 82 -129 97 -96 32 -200 24 -259 -21 -63 -47 -104 -143 -89
-205 6 -24 11 -30 96 -112 48 -46 65 -86 43 -100 -10 -6 -15 -90 -8 -114 3
-10 17 -18 32 -19 69 -3 103 -68 103 -193 0 -78 0 -79 -38 -112 -68 -61 -94
-104 -88 -144 7 -41 34 -69 95 -95 23 -10 42 -22 42 -26 1 -37 33 -150 47
-166 54 -59 124 -62 275 -12 139 46 220 50 193 10 -6 -8 -23 -32 -38 -53 -15
-22 -29 -49 -30 -60 -1 -16 -7 -19 -32 -17 -44 4 -132 -28 -165 -60 -66 -64
-84 -220 -37 -317 15 -30 39 -61 54 -70 37 -21 68 -56 59 -65 -4 -4 -19 1 -35
10 -15 9 -39 14 -52 12 -12 -3 -26 -1 -29 3 -17 25 -103 84 -140 97 -3 1 -12
5 -20 8 -8 4 -63 8 -121 10 l-106 4 10 -27 c8 -21 7 -39 -3 -72 -28 -88 -7
-163 70 -247 32 -34 38 -46 29 -57 -19 -23 7 -87 60 -143 38 -41 143 -76 165
-54 3 4 14 8 23 9 10 2 34 10 54 19 l36 17 124 -68 c68 -37 126 -69 128 -71 3
-2 -5 -11 -18 -19 -22 -16 -22 -17 -4 -33 32 -29 81 -44 164 -50 9 0 20 -8 23
-17 7 -19 -20 -74 -37 -74 -7 0 -43 18 -79 40 -36 21 -76 41 -89 44 -13 2 -64
23 -113 45 -111 52 -157 58 -226 31 l-52 -21 -37 28 c-20 14 -47 38 -61 51
-68 67 -151 59 -231 -22 -62 -62 -76 -151 -39 -247 32 -85 65 -124 133 -157
63 -30 96 -61 174 -164 37 -51 44 -55 75 -52 63 7 95 13 122 24 40 15 92 12
110 -6 23 -22 20 -49 -11 -95 -43 -66 -32 -152 23 -177 29 -14 57 -9 93 18
l30 20 27 -24 c25 -21 29 -32 32 -92 2 -41 -1 -81 -9 -99 -7 -16 -12 -33 -11
-37 1 -4 -25 -35 -58 -69 -34 -34 -60 -70 -60 -82 0 -26 63 -86 126 -117 33
-17 65 -25 102 -25 28 0 52 -2 52 -5 0 -3 -7 -16 -17 -29 -24 -35 -22 -98 6
-151 62 -119 70 -137 71 -162 0 -15 -8 -33 -19 -40 -56 -40 -73 -156 -40 -280
21 -84 32 -144 31 -173 -2 -37 -11 -62 -24 -63 -30 -2 -121 -32 -144 -47 -32
-20 -46 -58 -46 -116 0 -53 12 -81 52 -124 35 -37 36 -44 25 -120 -17 -114 1
-169 68 -217 28 -20 45 -23 146 -25 129 -2 153 -6 193 -34 34 -25 35 -49 8
-127 -45 -124 -39 -184 24 -246 35 -36 56 -46 124 -65 78 -21 84 -21 117 -6
19 10 37 25 40 36 9 27 30 24 54 -9 43 -56 61 -78 95 -116 20 -22 38 -48 42
-58 3 -10 10 -18 15 -18 5 0 24 -15 42 -32 18 -18 55 -51 83 -73 27 -21 51
-42 54 -45 3 -4 43 -33 90 -66 47 -32 91 -64 98 -71 7 -7 20 -13 28 -13 8 0
14 -4 14 -10 0 -5 16 -17 35 -26 19 -9 35 -20 35 -25 0 -5 4 -9 10 -9 5 0 35
-16 65 -36 109 -69 377 -194 505 -234 198 -63 202 -64 322 -89 142 -30 149
-31 198 -36 25 -3 56 -7 70 -10 88 -18 513 -27 633 -14 26 3 50 2 53 -3 3 -5
-12 -50 -34 -101 -36 -84 -39 -98 -36 -162 6 -104 74 -278 133 -342 12 -12 21
-25 21 -28 0 -8 130 -136 160 -158 14 -9 50 -34 80 -55 30 -20 57 -39 60 -42
38 -38 347 -177 505 -226 44 -14 94 -32 110 -40 17 -7 46 -16 65 -19 19 -3 55
-12 80 -19 25 -7 63 -18 85 -24 22 -6 58 -15 80 -21 22 -6 58 -13 80 -16 22
-4 65 -12 95 -20 53 -13 81 -18 164 -31 21 -3 48 -8 60 -11 18 -4 138 -22 261
-37 22 -3 54 -8 70 -10 17 -3 57 -8 90 -11 33 -4 70 -8 82 -10 12 -2 57 -6
100 -10 43 -4 89 -8 103 -11 14 -2 68 -6 120 -10 52 -3 115 -7 140 -9 25 -3
92 -7 150 -10 58 -4 139 -9 180 -12 148 -10 843 -14 849 -4 4 5 51 12 106 15
55 3 125 7 155 10 30 3 87 8 125 11 76 7 300 31 380 42 28 3 61 7 75 9 14 1
25 3 25 4 0 1 14 3 30 5 76 7 213 27 240 35 17 5 73 16 125 24 52 8 178 36
280 61 102 25 210 52 240 59 30 8 109 33 175 55 66 23 125 43 130 45 75 23
346 152 357 170 4 6 8 8 8 4 0 -7 58 28 86 51 5 4 21 14 35 21 25 14 57 40
121 101 20 20 40 34 43 31 3 -3 5 -1 5 5 0 6 18 30 40 54 22 24 40 50 40 56 0
7 5 13 10 13 6 0 10 7 10 15 0 8 3 15 8 15 19 0 64 121 79 215 13 77 8 114
-26 188 -17 37 -32 82 -33 100 l-3 32 70 -4 c186 -11 521 -3 630 14 17 3 44 7
60 10 17 2 48 7 70 10 22 4 48 8 57 11 9 3 27 7 40 9 52 10 127 28 192 47 38
11 76 21 85 23 26 5 196 68 201 74 3 3 14 8 25 10 34 6 350 163 365 182 3 4
15 9 28 13 12 4 22 12 22 17 0 5 5 9 10 9 6 0 35 18 65 40 30 22 57 40 60 40
3 0 18 11 33 25 15 14 31 25 37 25 5 1 25 14 44 30 19 16 39 26 44 23 6 -3 7
-1 3 5 -4 7 -3 12 2 12 4 0 17 8 28 18 10 9 37 30 59 47 63 47 140 128 247
262 l66 81 12 -28 c7 -16 27 -36 46 -45 32 -15 39 -15 111 5 93 25 145 64 168
125 19 48 15 108 -10 169 -8 19 -19 53 -24 75 -9 44 -12 40 54 88 19 14 38 16
143 14 68 -1 113 4 135 13 33 14 99 66 84 66 -5 0 -1 7 8 16 12 12 15 33 14
86 -1 38 -5 71 -9 73 -6 4 -7 34 -2 71 1 6 18 28 37 49 91 100 52 235 -75 259
-57 12 -90 27 -91 45 -4 39 5 131 11 131 3 0 6 8 7 18 0 9 7 48 16 86 17 78
15 162 -5 197 -7 13 -25 39 -40 58 -31 39 -29 48 37 177 27 51 41 92 40 110
-2 16 -3 34 -4 39 -1 10 -30 47 -74 94 -12 13 -46 35 -74 48 -60 28 -117 26
-211 -7 l-52 -19 -15 29 c-18 35 -19 43 -2 37 6 -2 35 5 62 15 128 50 281 3
336 -104 20 -39 21 -40 65 -34 58 7 125 40 174 88 50 47 52 76 8 108 -44 32
-70 65 -91 118 -25 63 -25 173 -1 193 8 6 11 15 8 20 -10 17 45 9 84 -11 109
-57 173 94 82 193 -19 20 -16 52 7 76 18 17 77 12 184 -16 19 -5 40 -8 47 -7
6 1 19 2 26 3 8 0 36 31 63 69 60 85 108 129 153 142 145 40 208 306 97 411
-29 28 -93 60 -126 64 -28 3 -101 -29 -101 -44 0 -5 -23 -26 -50 -46 l-50 -37
-38 18 c-64 31 -137 24 -234 -24 -46 -22 -100 -45 -120 -50 -21 -6 -50 -19
-65 -30 -32 -22 -92 -52 -104 -52 -9 0 -39 53 -39 69 0 9 21 19 57 25 10 2 35
7 57 10 21 4 52 17 68 29 l29 22 -22 18 c-12 9 -20 19 -18 20 2 1 13 8 24 15
11 6 31 17 45 23 14 6 33 18 42 26 10 9 18 13 18 9 0 -4 12 1 28 12 15 11 42
27 60 36 32 16 35 16 97 -9 35 -14 76 -25 92 -25 26 1 150 58 128 60 -6 0 -6
3 1 8 15 11 58 84 61 106 2 10 -1 24 -7 30 -6 9 5 30 38 72 27 32 54 73 61 90
15 39 16 100 2 137 -14 36 -14 80 0 94 14 14 -194 7 -236 -9 -37 -14 -103 -56
-130 -84 -13 -13 -34 -21 -59 -21 -21 -1 -42 -7 -47 -14 -4 -7 -11 -11 -14 -7
-13 13 7 44 46 71 55 38 82 101 82 192 0 83 -30 162 -75 200 -33 28 -130 59
-159 52 -15 -4 -23 3 -34 29 -8 19 -25 49 -39 67 -15 19 -26 39 -26 45 0 23
92 12 198 -24 143 -48 225 -44 274 15 18 21 40 92 37 114 -5 29 26 69 71 88
48 21 80 60 80 99 0 24 -36 74 -100 138 -23 23 -39 46 -35 52 4 6 8 46 9 89 1
56 6 85 19 105 18 27 75 59 89 50 24 -15 34 124 10 148 -18 18 -6 35 104 138
50 47 56 95 20 174 -48 105 -142 145 -287 123 -28 -5 -109 -41 -109 -49 0 -4
-6 -8 -12 -8 -14 0 -58 -59 -58 -76 0 -20 -130 -124 -154 -124 -9 0 6 33 27
62 15 20 18 36 14 62 -5 29 -1 40 24 68 77 86 99 160 74 246 -12 38 -11 43 5
52 50 27 50 144 1 261 l-31 73 45 65 c37 55 45 74 46 116 2 77 1 82 -25 110
-30 32 -78 47 -134 40 -57 -7 -67 1 -46 33 17 27 94 101 105 102 3 0 19 11 35
25 16 14 32 25 35 25 13 0 92 85 101 110 32 81 21 122 -52 205 -48 55 -57 71
-51 88 12 33 4 96 -18 131 -20 31 -61 72 -61 60 0 -4 -6 -2 -12 4 -18 14 -74
7 -131 -16 -54 -22 -64 -17 -102 61 -19 39 -37 81 -39 92 -12 63 -88 155 -149
180 -23 9 -49 20 -57 25 -9 4 -18 31 -24 67 l-8 60 -47 16 c-25 10 -61 17 -78
17 -32 0 -89 -27 -91 -43 -1 -4 -8 -15 -17 -24 -9 -8 -19 -28 -22 -44 -5 -25
-9 -28 -27 -22 -23 8 -83 9 -131 1 -16 -2 -43 -2 -58 1 l-28 6 25 47 c14 26
28 62 31 80 18 101 -135 188 -210 118 -25 -24 -35 -25 -35 -5 0 8 3 15 8 15 8
0 49 111 56 155 3 17 8 53 12 80 3 28 8 53 10 56 2 3 33 14 69 24 66 18 102
48 93 77 -3 7 3 26 13 41 13 23 15 36 7 63 -5 19 -6 39 -3 44 11 17 -15 79
-36 85 -16 5 -26 41 -18 68 0 1 -5 16 -11 32 -7 17 -13 38 -15 47 -7 32 -50
86 -108 132 -31 26 -63 59 -70 73 l-14 26 -6 -31 c-5 -22 -22 -42 -63 -72 -72
-54 -96 -104 -96 -203 0 -59 -4 -76 -21 -93 -19 -20 -24 -21 -56 -9 -20 7 -55
12 -79 11 -23 0 -42 4 -43 9 0 6 -2 17 -3 25 -2 8 -6 39 -10 69 -9 67 -25 106
-64 150 -40 45 -64 126 -63 207 1 63 0 65 -22 58 -12 -3 -33 -14 -47 -23 -14
-10 -34 -17 -45 -17 -17 1 -20 7 -17 36 2 30 51 142 96 220 33 56 46 95 46
136 0 83 -37 130 -125 158 -63 19 -84 37 -92 77 -9 45 -67 105 -111 116 -51
13 -91 -3 -142 -57 -21 -22 -45 -40 -54 -40 -29 0 -77 37 -198 153 -50 48
-152 76 -204 57 -28 -11 -63 22 -105 96 -16 28 -40 61 -53 73 -22 21 -78 41
-101 35z"/>
</g>
</svg>
